# xmcd
#
# Track frame offsets:
#	183
#	23678
#	42325
#	57693
#	78783
#	100505
#	122280
#	134133
#	160535
#	185765
#	202805
#
# Disc length: 2892 seconds
#
# Revision: 0
# Processed by: cddbd v1.5.2PL0 Copyright (c) Steve Scherf et al.
# Submitted via: audiograbber 1.83.01
#
DISCID=870b4a0b
DTITLE=Paul McCartney and Wings - Band On The Run [remastered 1993]
DYEAR=1973
DGENRE=Rock
TTITLE0=Band On The Run
TTITLE1=Jet
TTITLE2=Bluebird
TTITLE3=Mrs Vandebilt
TTITLE4=Let Me Roll It
TTITLE5=Mamunia
TTITLE6=No Words
TTITLE7=Picasso's Last Words (Drink To Me)
TTITLE8=Nineteen Hundred And Eighty Five
TTITLE9=Helen Wheels [bonus track]
TTITLE10=Country Dreamer [bonus track]
EXTD=
EXTT0=
EXTT1=
EXTT2=
EXTT3=
EXTT4=
EXTT5=
EXTT6=
EXTT7=
EXTT8=
EXTT9=
EXTT10=
PLAYORDER=
